<?xml version="1.0" encoding="utf-8"?>
<!-- Generator: Adobe Illustrator 16.0.3, SVG Export Plug-In . SVG Version: 6.00 Build 0)  -->
<!DOCTYPE svg PUBLIC "-//W3C//DTD SVG 1.1//EN" "http://www.w3.org/Graphics/SVG/1.1/DTD/svg11.dtd">
<svg version="1.1" id="Layer_1" xmlns="http://www.w3.org/2000/svg" xmlns:xlink="http://www.w3.org/1999/xlink" x="0px" y="0px"
	 width="685px" height="809px" viewBox="0 0 685 809" enable-background="new 0 0 685 809" xml:space="preserve">
<g id="layer102" fill="#dadada">
	<path d="M102.3,808.3c-0.7-0.2-1.3-1.3-1.3-2.399c0-1.2-1-2.301-2.5-2.9c-1.4-0.5-2.5-1.6-2.5-2.5
		c0-0.8-0.6-1.5-1.4-1.5c-0.7,0-2.1-1-2.9-2.2c-0.9-1.3-3.2-4.1-5.1-6.2c-2-2.199-3.6-4.3-3.6-4.699c0-0.5-1.3-2.2-3-3.9
		c-1.6-1.7-3-3.5-3-4c0-0.9-2.6-4.3-5.7-7.6c-1.5-1.4-3.3-5.9-3.3-7.9c0-0.7,1-1.6,2.3-1.8c2.1-0.4,2.1-0.4,0.1-0.601
		c-2.9-0.1-3.4-2.5-2.3-12.3c0.6-4.6,0.7-9.3,0.4-10.6c-0.6-2.4,0.9-6.2,2.5-6.2c0.5,0,1,0.8,1.2,1.8c0.3,1,0.6,0.4,0.9-1.5
		c0.5-2.8,0.3-3.3-1.5-3.3c-1.7,0-1.8-0.2-0.7-0.9c1.2-0.8,1.3-1.6,0.4-4.6c-1.1-3.5-0.8-6.5,0.6-6.5c0.3,0,0.7-2.7,0.9-6
		c0.2-3.4-0.1-6-0.6-6c-1.4,0-0.2-4.3,1.5-5.3c1.8-1.101,1.7-2.7-0.2-2.7c-0.8,0-1.5-0.4-1.5-1c0-0.5,0.7-1,1.5-1
		c1.8,0,3.8-3.7,3.1-5.6c-0.9-2.5,0.5-7.601,2-7c0.8,0.3,1.4,0.1,1.4-0.4c0-0.6-0.7-1-1.5-1c-2,0-1.9-2.9,0.2-5.2
		c1.1-1.2,1.3-2.2,0.7-2.6c-1.4-0.9-1.8-10.8-0.5-11.601c0.6-0.399,0.8-2,0.5-3.5c-0.4-1.6-0.1-5.199,0.5-8.1
		c1.1-5,1.4-7.6,2.6-21.2c0.5-5.399,1-6.8,2.3-6.8c1.6-0.1,1.6-0.1,0-1.1c-1.8-1-1.5-3.2,0.8-5.9c0.7-0.9,1.8-4,2.5-7
		c0.6-3,1.5-5.9,2-6.4c0.5-0.6,0.9-1.8,0.9-2.8s0.7-1.8,1.5-1.8c1.8,0,2-1.7,0.3-2.3c-0.9-0.3-0.5-1.101,1.1-2.601
		c1.3-1.1,1.9-2.1,1.2-2.1c-1.4,0-0.4-7.3,1.5-11.2c1.9-3.7,1.8-5.899-0.2-5.1c-0.8,0.3-1.3,1.1-1.1,1.7
		c0.7,1.699-3.6,3.399-6.1,2.5c-1.2-0.5-2.2-1.5-2.2-2.4s-0.9-4.4-1.9-7.8c-1.1-3.4-2.2-10.5-2.6-15.7c-0.3-5.2-0.8-12.9-1.1-17
		c-0.3-4.5-1.1-8.1-1.9-8.9c-1.5-1.6-1.5,1.4,0.6,23.801c1.8,20.5-1.3,45.899-6.6,54.199c-0.8,1.301-1,0.5-1-3.3
		c0-3.1,0.5-5.2,1.4-5.7c0.9-0.6,1.2-1.899,0.8-4c-0.5-2.199-0.2-3.3,0.9-3.899c1.3-0.7,1.6-3.5,1.5-18.101
		c-0.1-15.8-0.8-23.399-4.2-42.6c-1.2-6.7-1.8-8.2-2.8-6.7c-0.5,0.8,0.3,38.3,1.1,59.2c0.1,1.4-0.1,6.5-0.4,11.3
		c-0.3,4.8-0.1,9,0.4,9.3c0.5,0.301,0.4,1.2-0.3,2c-0.6,0.7-0.9,2-0.6,2.801c0.3,0.8-0.1,2-0.8,2.6c-1.2,1-1.6,0.9-1.9-0.1
		c-1.9-6-2.5-9.101-2.5-13.4c0-2.7-1.2-8.8-2.7-13.5c-1.4-4.7-2.7-9.6-2.8-11c-0.1-1.8-0.7-2.5-2.1-2.5c-2.4,0-3.7,5-3,12
		c0.2,2.8,0.7,7.7,1.1,11c0.3,3.3,1.5,11.9,2.7,19c2.6,15.4,2.6,23.5,0.2,33.6c-1.9,8.101-3.4,11.7-3.5,8.5c0-1-0.5-1.6-1.2-1.3
		c-1,0.3-1.2-0.8-0.9-4.1c0.2-3.101,0-4.2-0.8-3.8c-0.6,0.399-1.1,0.5-1.1,0.199c0-0.199-0.7-4-1.5-8.3S48,621.8,48,618.5
		s-0.7-9.5-1.5-13.8c-1.7-8.9-1.9-16.8-0.6-18.3c0.5-0.5,1.2-7.9,1.5-16.4c0.9-27.2,2.4-51.3,3.6-57.5c0.6-3.3,1.6-10.5,2-16
		c0.5-5.5,1.4-14.5,2-20s1.5-14.5,1.9-20c0.5-5.5,1.6-13.6,2.4-18c2.8-14,4-25,3.2-28.6C62,408,61.6,401.8,61.6,396l-0.1-10.5
		l3.7-5.5c6-8.7,25.2-24.8,32.9-27.5c2.3-0.8,4.7-2.1,5.3-2.9c1.1-1.4,4.5-2.1,17.4-3.2c7.6-0.7,8-1.1,6.2-5.9c-0.8-2-0.7-3,0.5-4.1
		c1.3-1.4,1.6-1.4,2.1,0c0.3,0.9,1.2,1.6,1.9,1.6s1.5,0.5,1.7,1c0.2,0.6,2.4,1.1,5.1,1.2c2.6,0.1,4.7,0.7,4.7,1.3
		c0,0.5,0.4,0.4,0.9-0.4c0.6-1,1-1,1.6-0.1c0.4,0.6,0.2,1.7-0.4,2.3c-0.6,0.6-1.1,2.3-1.1,3.7s-0.5,3.1-1.2,3.8
		c-0.9,0.9-0.9,1.2,0.1,1.2c0.8,0,1.1,0.7,0.8,1.9c-0.4,1.7,0.5,2.2,6.9,3.6c4.1,0.9,8,1.5,8.7,1.2c0.6-0.2,2.6,0,4.2,0.5
		c1.7,0.5,6.4,0.9,10.7,0.8c7.2-0.1,7.8,0.1,10.7,2.9c2.5,2.5,3.5,2.8,6.3,2.2c4.6-1,6.3-0.4,7.6,2.4c0.9,1.9,0.9,3.2,0,5.2
		c-0.6,1.6-1.1,3.1-1,3.5c0.4,1.9-3.2,1.4-5.9-0.9c-2.5-2.2-3.2-2.4-4-1.2c-0.5,0.8-0.9,1.7-0.9,2c0,0.3-0.9,1.6-2,2.9
		c-1.1,1.2-1.7,2.7-1.4,3.1c0.6,1,5.4,0.1,6.8-1.2c0.6-0.5,2-0.9,3.2-0.9c1.3,0,2.6-0.4,2.9-1c0.3-0.5,2.1-1,3.8-1
		c1.8,0,4.3-0.9,5.7-2c3-2.4,6.1-2.5,10.1-0.4c1.7,0.8,3.7,1.3,4.5,1c0.8-0.3,1.9,0.8,3,2.9c1.4,3.1,1.5,3.6,0,5
		c-1.7,1.8-3.6,7.7-3.6,11.7c0,1.5-0.4,3.8-1,5.2c-1.2,3.1,0.4,3.5,2.2,0.6c0.7-1.1,2.3-2,3.6-2c1.8,0,2.2-0.4,1.8-1.8
		c-0.4-1,0.1-3.3,1-5.1c1.3-2.6,1.5-5.4,1-15.5c-0.7-14-2.5-23.2-5.2-26.6c-4-4.9-17.2-19.6-18.9-21c-1-0.8-4-1.6-6.6-1.7
		c-4.7-0.1-4.9,0-4.9,2.7c0,1.5-0.7,3.3-1.5,4c-1.9,1.6-1.9,2.9,0.1,5.1c1.1,1.2,1.4,2.7,1,4.5l-0.7,2.6l-7.7-0.7
		c-4.2-0.4-10.1-0.8-13.1-0.9c-3.7-0.1-5.6-0.6-5.9-1.5c-0.3-1,0-1.2,1.2-0.8c0.9,0.4,2.4,0.3,3.4-0.2c3.8-1.9,6.9-3,10.5-3.6
		c3.4-0.5,4.2-1.4,3.8-3.8c-0.1-0.5,0.8-1.1,1.9-1.4c2.9-0.8,2.5-3.1-0.9-5.1c-1.7-0.9-3.2-2.6-3.5-3.7c-1.2-4.4-0.7-5.2,3.6-5.9
		c5.3-0.9,7.3-2.3,5.7-4.2c-0.6-0.8-1.8-1.4-2.5-1.4c-1.9,0-4.2-4.9-4.2-9c0-4-1.4-6.9-6-12.8c-4.4-5.5-6.6-5.6-5.7-0.2
		c0.7,4.2-0.8,10.5-2.8,11.7c-0.7,0.5-2,2.1-3,3.6c-3.8,5.9-7.7,7.1-27.2,8.2c-9.3,0.6-19.9,3.1-18.9,4.6c0.3,0.5-1,0.9-2.8,1
		c-2.8,0-3,0.2-1.3,0.9c1.5,0.7,1.1,0.9-2,0.7c-2.2-0.1-4.3-0.6-4.7-1.2c-0.5-0.6-0.8-0.3-0.8,0.7c0,0.9,0.6,1.9,1.3,2.1
		c0.6,0.3,0.3,0.6-0.8,0.6c-2.7,0.1-4.1-0.9-4.9-3.6c-0.4-1.2-2.1-3.4-3.8-4.8c-3-2.6-3.1-2.8-2.9-10.8c0.2-5.5,0.9-9.5,2.2-12.4
		c1-2.3,1.9-5.8,1.9-7.8c0-3.4,2.4-10.3,4.1-11.5c1.9-1.5,3.6-16,1.8-16c-1,0-7.9-7.1-7.9-8.1c0-0.5-0.5-0.9-1.1-0.9
		c-0.5,0-0.8,0.4-0.4,0.9c1,1.8-1.2,2.1-2.6,0.3c-3.9-4.8-4.5-9-0.9-5.7c1.5,1.4,1.7,1.3,1.5-1.2c-0.2-2.9-1.4-8.5-4.6-21.4
		c-2.6-10.5-2.7-31.3-0.2-32.8c1.7-1,1.7-1,0.1-1.1c-2.1,0-2.3-1.3-0.5-2.7c1.7-1.4,7.7-2.4,7.7-1.4c0,0.5,1.5,1.2,3.3,1.5
		c5.1,1,23.2,10.8,22.1,11.9c-0.4,0.4,0.1,1,1.1,1.3c1,0.4,2.1,0.1,2.6-0.7c0.5-0.8,0.9-1,0.9-0.5s0.7,0.3,1.5-0.4
		c0.9-0.7,1.9-1,2.3-0.6c0.9,1-2.7,3.6-5,3.6c-1.5,0-1.8,0.8-1.8,5c0,4.9-1.2,6.6-2.4,3.4c-0.3-0.9-0.6-3.5-0.6-5.9
		c0-3.8-0.4-4.6-3.4-6.4c-4.3-2.7-5.2-2.7-2.6,0.1c1.1,1.2,1.8,2.3,1.6,2.5c-0.9,0.9-7.6,0.8-7.6-0.1c0-0.6-0.8,0.5-1.9,2.4
		c-1.7,3.2-1.7,3.6-0.2,4.2c1.4,0.6,1.4,0.7-0.1,0.7c-1.5,0.1-3.1,4.3-2.9,7.4c0.2,1.7,1.5,0,1.6-2c0.1-3.6,2-4.9,5-3.5
		c1.4,0.7,3.6,1.2,4.9,1.2c2,0,2.5,0.6,2.8,3.5c0.3,2.4,0,3.5-0.9,3.5c-2,0-1.5,1.3,1.2,3.4c2.3,1.7,2.5,2.6,2.5,9.5l0.1,7.6
		l3.7-4.1c2.1-2.3,4.8-6.2,6.1-8.8c1.3-2.5,2.8-4.6,3.2-4.6c0.9,0,3.1,7.5,6.7,22.2c2.7,11.4,6.3,18.5,12.5,24.7
		c6.1,6.2,11,7.5,27.7,7.5c18.3,0,23.3-2.5,24.4-12.4c0.8-6.8,4.3-11.6,7.8-10.7c2.1,0.6,6.4-1.2,10-4.2c1-0.7,2.9-1.1,4.3-0.9
		c1.4,0.3,2.5,0.2,2.5-0.1c0-0.3,1-0.7,2.3-0.8c1.2-0.2,4.6-0.6,7.5-0.9c3.4-0.4,5.8-0.2,6.5,0.5c0.6,0.6,2.6,1.1,4.4,1.1
		c1.8,0,3.3,0.5,3.3,1c0,0.6,2.2,1,4.9,1c4.3,0,5.4-0.5,8.5-3.5c2-1.9,4.3-3.5,5.1-3.5s1.5-0.8,1.6-1.7c0.1-3.8,0.8-5.7,2.4-6.6
		c1-0.5,1.5-1.9,1.3-3.5c-0.3-2.5,0-2.7,3.6-3c2.1-0.2,4.3,0.1,4.9,0.7c0.7,0.7,5.6,1.1,11.8,1.1c5.9,0,11,0.4,11.3,0.9
		c0.3,0.4,3,1.1,6,1.5c7,0.8,10.6,2.4,10.6,4.8c0,1,0.7,1.8,1.6,1.8c1.4,0,1.601,0.8,1,5c-0.6,4.4-0.5,4.9,1,4.3
		c1.301-0.5,1.601-0.3,1.101,1c-0.3,0.9-0.2,1.7,0.3,1.7c0.6,0,0.5,0.9-0.2,2c-1,1.5-1,2.4-0.1,3.9c0.899,1.5,0.8,2.1-0.8,3.4
		c-1,0.9-1.9,2.3-1.9,3.1c0,0.8-1.5,4.1-3.3,7.3c-3,5.2-3.3,6.6-3,11.8c0.2,3.4,1.1,7,2,8.5c1,1.4,2.6,4,3.6,5.9s2.5,4.1,3.3,4.8
		c0.801,0.8,1.4,2.1,1.4,2.9c0,1.9,1.9,1.8,4.2-0.3c1.7-1.5,1.8-1.5,1.8,0.4c0,2.6,1.4,3.1,6.7,2.5c4-0.4,4.7-0.9,9.3-7.2
		c2.7-3.8,5.9-9,7.2-11.7c1.2-2.6,2.6-4.9,3-5.1c0.399-0.2,1.2-2.1,1.8-4.3c0.6-2.1,1.5-3.9,2-3.9c0.6,0,1-0.6,1-1.4
		c0-2.1,6.1-14.6,7.1-14.6c0.5,0,1.4-1.2,1.9-2.6c1-2.5,1.1-2.5,8-1.8c6.5,0.6,7.4,1,11.7,4.9c3.1,2.9,4.399,4.8,4,5.9
		c-0.4,0.9-0.3,1.6,0.2,1.6s1.1,2.7,1.3,5.9c0.3,3.8,1.399,7.8,3.1,11.1c1.5,2.8,2.7,5.8,2.7,6.5c0,2.2-2.2,6.5-3.3,6.5
		c-1.8,0-6.7,6.5-6.7,9c0,5.1,4.4,7.9,9.3,5.9c3.8-1.5,10.101-7.5,9.2-8.8c-0.7-1.2,8.5-9.1,10.8-9.1c1,0,1.7-0.8,1.7-1.9
		c0-1,0.9-3,2-4.4c1.1-1.4,2-3.2,2-4c0-0.7,0.9-2.2,2-3.2s2-1.3,2-0.8c0,0.6,1.2,1.4,2.7,1.8c2.1,0.5,2.399,0.8,1.3,1.5
		c-1.2,0.7-1.2,1.2-0.2,2.2s1.7,1,3.2,0c1.2-0.7,2.1-0.8,2.5-0.2c1,1.7,2.5,1.1,2.5-1c0-1.1,0.9-2.9,2-4c2-2,2.7-5,1.2-5
		c-0.4,0-1.8-2.7-3-6c-1.4-3.4-3-6-3.8-6c-0.801,0-2.2-0.8-3.2-1.8c-1.101-1.1-3.8-2.2-6.2-2.6c-4.3-0.7-6.9-2.8-7-5.5
		c0-1.1,0.3-1.1,1.5-0.1c1.1,0.9,2.2,0.9,5-0.1c1.9-0.7,3.5-1.6,3.5-2s1.4-1.2,3-1.8c2.9-1,3.7-3.2,3.1-8.6c0-0.5,1.4-2,3.2-3.2
		c2.7-1.8,3.9-2,7.4-1.4c2.6,0.5,5,1.8,6.2,3.2c2.399,3,4.899,12.4,5.5,20.7c0.5,7.3,1.6,9.6,1.6,3.4c0-3.1,0.4-4.2,1.5-4.2
		s1.5-1.2,1.5-4.5c0-3.2,0.4-4.5,1.4-4.5c1.3,0,3.6-6.7,3.6-10.5c0-0.9,0.7-2.3,1.5-3.1c1.3-1.4,1.5-1.2,1.5,1.4
		c0,1.6,0.3,3.2,0.7,3.6c1,0.9,1.3,3,2,11.1c0.5,6,0.1,8.5-2.601,17c-1.699,5.5-4,11.8-5.1,14c-1.1,2.1-2,4.5-2,5.2
		c0,1.4-1.8,5.9-5.8,14.3c-5.3,11-13.8,22.4-25.5,34.3c-6.601,6.7-12,13.1-12.4,14.6c-0.3,1.4-1.1,2.9-1.7,3.3
		c-0.699,0.5-1.199,5.6-1.3,13.9c-0.1,7.3-0.6,13.5-1.1,13.8c-0.5,0.3-0.9,2-1,3.8c0,1.7-0.7,4.4-1.5,6c-0.8,1.5-2.3,5.6-3.2,9.1
		c-1.1,3.7-2.3,6.2-3.1,6.2c-0.801,0-1.4-0.6-1.4-1.2c-0.1-0.7-0.9,0.101-1.8,1.7c-1.601,2.9-2.101,3.1-7.7,3.1
		c-6.6,0-8.4-1.3-8.5-5.699c0-3-1.1-3.7-5.2-3.4c-2.3,0.2-2.8-0.2-2.8-2.2s0.5-2.3,3.8-2.3c4,0,7.601-1.8,5.4-2.7
		c-0.601-0.2-1.2-1.1-1.2-1.9c0-2-9.3-1.9-11,0.1c-0.7,0.8-2.1,1.5-3.1,1.5c-1.101,0-1.9,0.7-1.9,1.6c0,1.4-0.8,1.6-4.9,1.2
		c-4.6-0.5-5.199-0.2-8.899,3.101c-5,4.6-6.2,3.5-6.2-5.4c0-6.4-0.1-6.7-2.9-7.8l-2.899-1l0.6-8.3c0.5-8.9-0.899-14.5-4.8-18.6
		c-1.1-1.2-2-2.8-2-3.5c0-0.8-1.2-1.3-2.8-1.3c-2.101,0-3.101,0.7-3.9,2.8l-1.1,2.7l-0.101-2.7c-0.1-4-2.6-3.4-3.899,0.9
		c-0.8,2.6-0.8,3.9-0.101,4.4c0.7,0.4,0,2.9-2,7.3l-3,6.6H330.2c-3.601,0-5.4-0.5-6.7-2c-2.1-2.3-3.5-1.8-3.5,1.2c0,1.2-2,4-4.6,6.5
		c-5.2,4.9-9.5,5.7-11.601,2.3c-1.1-1.7-2.4-2-8-2h-6.7l-1.1,3.8c-1.2,4.2-3,6.9-5,7.4c-0.8,0.2-2.5,1.3-3.8,2.6
		c-3,2.8-7.2,3-7.2,0.2c0-1.8-0.7-2-7-2s-7.1,0.2-8.6,2.5c-1.9,3-8,3.6-8.6,0.9c-0.2-1.2-1.2-0.8-4,1.8c-2.1,1.8-3.8,3.8-3.8,4.399
		c0,0.601-1,2-2.3,3.2c-1.6,1.601-3.1,2-5.5,1.601c-1.9-0.301-4,0-5.2,0.899c-1.8,1.2-1.8,1.601-0.5,3.3c0.8,1.101,1.4,4.2,1.5,7.2
		c0,5.101-0.3,5.601-4.5,9.8c-2.5,2.4-5.2,4.4-6,4.4c-2.3,0-7.3,4.9-8.5,8.4c-1.6,4.899-10,10.199-15.1,9.399
		c-1.4-0.2-3.2,0.7-5,2.4c-1.4,1.5-3.9,3-5.5,3.3c-1.6,0.4-5,1.3-7.6,2.1c-2.6,0.801-5.9,1.4-7.3,1.4s-3.5,0.4-4.5,1
		c-1.3,0.7-2.6,0.5-4.7-0.5c-1.5-0.8-3.3-1.5-4-1.5c-0.6,0-2.5-1.1-4.1-2.5c-2.6-2.2-3.8-2.5-9.5-2.3c-7.5,0.3-7.5,0.7-1.5,7.899
		c2.1,2.601,3.8,5.101,3.8,5.7c0,0.5,0.6,1.5,1.4,2.101c0.8,0.699,1.8,2.699,2.1,4.399c0.9,4.601,2.6,9.601,4.6,14.2
		c1,2.2,2.1,6.1,2.4,8.8c0.4,2.601,1.2,5,1.7,5.3c0.5,0.301,1.3,1.7,1.8,3c1.1,2.9,4,3.101,6.3,0.4c2.1-2.5,3.7-2.6,3.8-0.2
		c0,1,0.3,1.2,0.6,0.5c1-2.7,5,4.101,5.2,8.9c0.1,4.8,2.5,13.5,4.2,15.2c0.5,0.6,0.9,1.8,0.9,2.699c0,0.9,0.7,3,1.5,4.5
		c0.8,1.601,1.5,3.601,1.5,4.5c0,1.801,4.8,5.5,5.8,4.5c0.3-0.3,1.3,0.101,2.3,1c1.5,1.4,2,1.2,5.3-2.199c3.1-3.2,3.6-4.2,3-6.801
		c-0.4-1.699-1-3.3-1.3-3.6c-1.6-1.1-9.1-11.8-9.1-12.8c0-0.7-0.4-1.2-0.8-1.2c-0.9,0-3.2-4.4-3.2-6c0-1.1,6.2-8,7.3-8
		c0.4,0,0.6,0.8,0.3,1.8c-0.4,1.2,0.2,2.101,2.1,3c1.5,0.601,3.2,1.2,3.8,1.2c0.7,0,1.7,1.1,2.3,2.4c0.6,1.399,2.1,2.6,3.4,2.8
		c1.7,0.2,2.3,1,2.3,2.8c0,1.4,0.5,2.5,1,2.5c2.1,0.1,3.5,1.7,3.5,4.3c0,2.8,4.1,8.101,6.3,8.3c14.8,1.301,18.3,0,22.8-7.8
		c1.7-2.899,3.5-5.3,4-5.3s0.9-2,0.9-4.4c0-3.5-0.5-4.8-2.2-6c-2-1.399-2-1.6-0.3-2.199c1.8-0.7,1.8-0.801-0.1-1.5
		c-1.5-0.5-1.1-0.801,1.8-1.4c4.1-0.8,7.3-0.1,6.4,1.4c-0.7,1.1,0.3,4.1,1.4,4.1c0.4,0,0.6-1.2,0.4-2.7l-0.4-2.8l1.5,3
		c0.8,1.7,1.4,3.8,1.5,4.8c0,0.9,0.4,1.7,0.9,1.7c1,0,7.9,15,8.8,19c0.4,2.5,0.3,2.9-1,2.4c-0.8-0.301-3.5,0.399-6,1.5
		c-2.5,1.199-4.8,2.1-5.1,2.1c-0.3,0-2.9,1.1-5.8,2.4c-7.3,3.3-8.5,3.699-14.9,4.6c-6.2,0.9-12.4,0-18.4-2.6c-2.2-1-4.6-1.9-5.4-2
		c-0.7-0.101-1.8-0.7-2.4-1.301c-1.6-1.6-2.7-1.3-2.1,0.4c0.4,0.8,1,1.5,1.5,1.5c0.6,0,1.5,0.5,2.2,1c0.7,0.6,3.8,3.1,6.9,5.6
		c3.4,2.7,6.5,6.301,7.7,8.7c3.5,7.5,6.1,27.9,8.1,64.2c1.7,31.1,2,33.4,3.9,32.7c2-0.7,7.1-6.101,7.1-7.4c0-0.5-0.7-1.7-1.6-2.5
		c-1.4-1.5-1.3-1.8,1.2-4c1.5-1.2,3.4-2.3,4.3-2.3c0.8,0,3-1.7,4.8-3.7c2.8-3.1,3.3-4.5,3.3-8.5c0-2.6,0.5-4.8,1-4.8
		c0.6,0,1-0.4,1-1c0-0.5-0.7-1-1.5-1c-1.8,0-2-2-0.2-2c0.6,0,0.3-0.7-0.8-1.6c-2-1.5-2-1.5,0.2-2c1.5-0.4,2.2-1.5,2.5-4
		c0.2-1.801-0.1-3.5-0.7-3.801c-0.7-0.199-0.7-0.699,0.1-1.5c0.7-0.8,1.5-0.8,2.8,0.2c1.4,1,1.5,1.8,0.7,3.9
		c-0.7,1.8-0.6,2.899,0.2,3.7c0.9,0.899,0.9,1.399-0.1,2c-0.9,0.5-0.6,1.5,1.3,3.699c1.4,1.601,2.5,3.2,2.5,3.7
		c0,0.4,0.7,0.7,1.5,0.7c1.1,0,1.5,1.3,1.5,5.3c0,2.9,0.5,5.8,1.2,6.5c0.6,0.601,1.1,2.7,1,4.7c-0.1,2.3,0.3,3.5,1.2,3.5
		c0.7,0,2.1,0.9,3.2,2.1c1.5,1.7,1.6,2.301,0.6,4c-0.7,1-0.8,1.9-0.4,1.9c0.5,0,1.5,2.3,2.2,5c0.7,2.8,1.9,5,2.6,5
		c0.7,0,1.4,0.6,1.7,1.3c0.3,0.601,0.8-0.7,1.2-3c0.4-2.399,1.2-4.3,1.7-4.3s0.7,0.8,0.4,1.8c-0.4,1.101,0.6,2.5,2.8,4.2
		c1.9,1.4,3.2,2.7,3,2.9c-0.2,0.199,0.1,1.1,0.8,1.8c0.9,1.1,0.9,1.6-0.2,2.3c-2.1,1.3,1.3,2.4,4.7,1.5c2.1-0.5,2.4-0.8,1.3-1.5
		c-1.9-1.1-1.9-4.1-0.2-5.9c0.8-0.8,1.2-2.6,0.9-4c-0.6-3.1,1.8-8.1,3.8-8.1c2.6,0,1.6-2.3-3.5-8.5c-9.9-12-14-17.6-14-18.9
		c0-0.8-1.8-4.8-4-8.899c-3.1-5.7-4.8-7.8-7-8.5c-3.4-1.2-4.7-5.5-4.1-13.7c0.7-9.1,0.6-16-0.3-19.6c-0.6-2.801-0.4-4,0.9-5.2
		c2.3-2.4,1.5-5.3-1.3-4.9c-1.2,0.2-2.4-0.3-2.6-1c-0.1-0.7-0.8-2.899-1.4-4.7c-1-2.899-0.9-3.899,0.5-6c1-1.5,1.6-2.899,1.5-3.3
		c-0.1-0.399,0.7-1.2,1.8-1.8c1.7-0.9,2-0.8,2.1,1.2c0.1,3.1,0.4,5.899,1.8,14.8c0.6,4.1,1,11.6,0.9,16.5
		c-0.2,10.3,0.9,17.5,2.7,17.5c1.7,0,2.5-2.3,2.5-7.1c0-2.101,0.5-3.9,1.1-3.9c0.5,0,0.7-0.6,0.3-1.2c-0.5-0.8,0-0.7,1.1,0.2
		c1.6,1.3,1.6,1.5,0.2,1.8c-2.1,0.4-2.2,2.601-0.2,4.2c0.8,0.7,1.2,1.7,0.8,2.3c-0.4,0.601,0.4,0.8,2,0.5c2.4-0.5,2.6-0.3,2.1,1.8
		c-0.4,1.5-0.2,2.4,0.5,2.4c0.6,0,1.1-0.6,1.1-1.2c0-2,8.1,13.5,9.5,18.4c0.4,1.2,3.1,7.899,6,14.8c10.7,25.6,12.2,30.1,15.4,47.4
		c1.1,5.899,0.8,8.1-1,7.1c-0.5-0.4-0.9-0.2-0.9,0.3s0.9,1.2,2,1.5c2.4,0.601,2.3,1.101,5-20.3c3.3-26.6,9-56.8,12.2-65
		c2.3-6,4.8-10.2,4.8-8.2c0,2.101,2.8,1.3,5-1.5s5.3-4,12.3-4.8c4.5-0.5,6-1.3,5.2-2.6c-0.4-0.5,0.1-0.9,0.9-0.9c0.8,0,2-0.9,2.6-2
		c1.2-2.3,3.5-2.6,4.7-0.7c0.399,0.601,2.3,1.2,4.2,1.2c2.899,0,3.6,0.5,4.399,2.9c0.7,2.1,0.601,3-0.399,3.699
		c-1.2,0.7-1.101,1.101,0.399,2.601c1.601,1.6,1.7,1.6,1.7-0.4c0-1.2,0.5-2.5,1-2.8c0.6-0.3,1-1.9,1-3.6c0-1.7,0.9-3.801,2.2-5.101
		s2.2-2.899,2-3.5c-0.2-0.7,0.399-1.3,1.3-1.3c1.1,0,1.4,0.7,1,2.3c-4.2,18.2-4.1,17.7-1.7,17.7c1.2,0,1.8-0.8,2-2.5
		c0.101-1.4,1.101-3.4,2.2-4.5c1.4-1.4,1.9-2.8,1.5-4.1c-0.8-2.5,1.1-2.5,2.5,0.1c0.7,1.4,2.1,2,4.2,2c3,0,3.1-0.1,1.2-1.5
		c-1-0.8-2.5-1.5-3.2-1.5c-2.3,0-4.601-3-3.3-4.3c0.8-0.8,1.399-0.8,2.399,0.2c1,1.1,0.9,1.3-0.3,0.699c-0.8-0.399-0.6,0,0.4,0.801
		c1.1,0.899,3.1,1.6,4.5,1.6c2,0,2.3-0.2,1.1-1c-0.8-0.5-1.1-1.2-0.7-1.6c0.4-0.4,1.3-0.2,1.9,0.399c0.7,0.7,2.3,1.2,3.5,1.2
		c1.399,0,2.3,0.5,2.2,1.3c-0.101,0.601,0.3,2.4,0.8,3.8c1.2,2.9-0.101,9.101-3.601,17.2c-1.199,2.7-2.1,5.601-2.1,6.5
		c0,0.9-0.5,2.4-1,3.2c-0.8,1.1-0.9,0.8-0.4-1.2c0.301-1.6,0.2-2.8-0.399-2.8c-0.5,0-1.4,2.3-1.9,5c-0.6,2.8-0.6,5-0.2,5
		c0.5,0,0.9,0.9,0.9,2.1c0,1.5-0.5,1.9-1.6,1.5c-0.801-0.3-1.2-0.199-0.9,0.301c0.6,1-0.5,6.3-3.7,17.5c-1.1,3.699-1.7,7-1.5,7.3
		c0.3,0.2-0.399,2.6-1.399,5.399c-1,2.7-1.7,4.9-1.4,4.9s0.1,0.8-0.4,1.9c-0.6,1-1.3,3.6-1.6,5.699c-0.8,5.7-1.3,12.2-0.8,10.2
		c0.2-1,0.899-1.8,1.399-1.8s0.9-0.9,0.9-2.1c0-1.4,0.5-1.9,1.4-1.601c0.699,0.3,2.1-0.399,3-1.399c1.3-1.5,1.399-2.4,0.5-4
		c-0.601-1.101-0.801-2.301-0.5-2.7c0.3-0.3,0.6,0,0.6,0.6c0,0.7,0.4,1.2,0.9,1.2c0.8,0,2.3-6.6,3.6-15.2c0.2-1.5,1.3-4.8,2.4-7.5
		c1.1-2.6,2.5-6.6,3-8.8c1.399-5.5,8.5-31.3,10.199-36.5c0.4-1.4,2.2-7.1,3.9-12.8c1.8-5.601,3.7-10.8,4.3-11.5
		c0.7-0.601,1.3-2.101,1.5-3.101s1-2.5,1.8-3.3c0.801-0.8,1.4-2.2,1.4-3.2c0-2.199,1.9-4.1,4.1-4.1c2.2,0,2.5,1,2.4,11.2
		c0,5,0.4,8.6,1,8.5c0.5-0.101,1,0.8,1.1,2.1c0.101,1.2,0.9,3.101,1.801,4.101c1.699,1.899,1.899,1.899,7.699-0.7
		c5.601-2.601,5.801-2.8,5.301-5.7c-0.601-2.8-0.5-2.9,0.899-1.1c1.4,1.899,1.5,1.899,2.3-0.5c0.5-1.301,0.9-4.9,1-7.9
		c0.101-3,0.2-7.4,0.301-9.7c0-2.3,0.8-4.8,1.6-5.7c0.8-0.8,1.5-2.6,1.5-4c0-1.399,0.4-2.8,1-3.1c0.9-0.5,0.6-7.2-0.3-8.1
		c-0.2-0.2-4.101,0.1-8.8,0.699c-12.5,1.601-19.7,0.601-31.4-4.5c-12.1-5.3-14.9-6.3-19.7-7.1c-2.1-0.3-3.8-0.8-3.8-1
		c0-0.3,1.8-4.4,4-9.2c2.2-4.7,5.4-13,7.1-18.2c1.7-5.3,3.9-11.699,5-14.3c1-2.6,1.9-5.399,1.9-6.3c0-0.8,1-2,2.3-2.5
		c1.2-0.5,1.7-0.9,1-0.9c-0.6-0.1-0.899-1-0.6-2.1s0.899-1.7,1.399-1.4c0.5,0.301,0.9-0.6,0.9-2c0-1.8,0.5-2.6,1.8-2.6
		s1.4-0.2,0.3-0.9c-1.1-0.699-0.6-2.199,2.301-7.6c2-3.7,3.6-7.8,3.6-9.1c0-1.301,0.5-2.4,1-2.4c0.6,0,1-0.5,1-1.1
		c0-0.601,0.6-2.5,1.3-4.2c1.2-2.9,4.7-13.8,6.2-19.3c0.3-1.2,0.8-5.7,1-10c0.3-4.301,0.9-9.2,1.3-10.7c0.4-1.601,0.4-6.6,0-11
		c-0.8-8.6-0.1-17.7,1.3-17.7c0.4,0,1.301,1.9,1.9,4.1c0.7,2.3,3,8,5.3,12.7l4.101,8.5L448.1,409.4c-0.5,23.699-0.399,29.6,0.801,31
		c0.699,0.8,1,2,0.899,2.699c-0.2,0.7,0.601,1.5,1.7,1.7c1,0.2,3.3,1.7,5,3.4c1.6,1.6,4,3.8,5.2,5l2.3,2.1v-14.1
		c0-7.7,0.3-14.7,0.6-15.601c0.301-0.899,1.7-1.6,3-1.6c1.5,0,2.4-0.6,2.4-1.5c0-0.8,0.5-1.5,1-1.5c1.7,0,1.1-1.8-1.5-4.6
		c-1.4-1.5-2.3-3.4-2-4.2c0.3-0.7,0-2.3-0.6-3.4c-0.601-1.1-1.101-3.899-1.2-6.3c-0.2-3.1-0.9-5-2.4-6.5c-1.3-1.1-2.6-3.2-2.899-4.5
		c-0.301-1.4-1.2-2.5-2-2.5c-0.801,0-1.4-0.6-1.4-1.2c-0.1-2-1-7.8-2.3-14.3l-1.2-6l-6-0.1c-3.2-0.1-6-0.5-6.2-1
		c-0.6-1.8,1.4-3.3,5-3.8c2-0.2,6.2-1.2,9.4-2.2c7.1-2.2,29.3-2.5,39.8-0.7c3.9,0.7,9.3,1.7,12.2,2.2c5.7,1.1,16.6,4.5,32.2,10.3
		c8,2.9,11.8,3.8,16.699,3.8c3.5,0,8.5,0.5,11.101,1.1c7.7,1.8,26.2,7,34.3,9.6c9.4,3.1,19.5,5.3,24,5.3c4.2,0,8.2,2.1,14.4,7.6
		c4.8,4.4,5.6,6.7,3.1,10c-2.8,3.801-1.7,6.601,4.7,11.9c3.3,2.8,8.6,7.3,11.7,10.2c3.1,2.899,7.199,6.5,9.199,8
		c1.9,1.5,6.301,5.3,9.7,8.3l6.2,5.4V577.6v124.2l-3.1,1.101c-1.801,0.6-4.2,1.1-5.301,1.1c-2.6,0-13.699,3.8-15.1,5.1
		c-0.5,0.5-1.7,0.9-2.7,0.9s-1.8,0.4-1.8,1c0,0.5-1.9,1.4-4.2,2c-2.399,0.6-5.6,1.8-7.1,2.6c-1.601,0.801-3.5,1.4-4.3,1.4
		c-0.801,0-1.4,0.4-1.4,1c0,1.1-6.9,3.1-12.5,3.5c-4.6,0.4-6.5-0.8-6.5-4.1c0-1.7-0.4-2.2-1.5-1.801c-1.1,0.5-1.5-0.199-1.7-2.699
		c-0.3-6.601-0.399-7.4-1.1-10.101c-0.4-1.6-1.4-2.8-2.2-2.8c-2.2,0-2,0-7.4-1.6c-2.699-0.801-5.3-1.4-5.8-1.301
		c-0.399,0.101-2.1-0.3-3.6-0.899c-1.601-0.7-3.4-1.2-4.101-1.2c-3.1,0-6.3-7.3-3.6-8.2c0.6-0.2,1.2-1.3,1.5-2.6
		c0.6-3.5,1.4-4.2,4.4-4.2c1.699,0,4.199-1.2,6.199-3c2.301-2,4.101-2.9,5.5-2.5c1.2,0.3,3-0.3,4.2-1.3c3.7-3.3-1.1-6.601-9.5-6.5
		H598V662.6c0-4.899,0.7-6.199,4.2-7.5c5.3-2,1.3-7.1-5.5-7.1c-4,0-8-2.6-5.9-3.9c0.7-0.399,1-3.899,0.8-10.1
		c-0.3-9.3,0.301-12.1,3.101-14.9c0.8-0.699,1.2-2,0.8-2.899c-0.3-0.8,0.2-2.3,1.1-3.3c0.9-1.101,1.4-2.7,1.101-3.9
		c-0.3-1.1,0.1-2.7,0.899-3.4c0.801-0.8,1.4-1.8,1.4-2.3c0-0.399,2.4-2.399,5.4-4.3s5.199-3.8,5-4.2c-0.301-0.399,0.5-1.3,1.8-1.899
		c1.3-0.5,3-2.4,3.8-4.2c0.8-1.7,2.8-3.8,4.4-4.7c1.6-0.9,3.1-2,3.3-2.6c0.399-1.301-3.5-3.601-4.2-2.4c-0.3,0.6-0.1,1,0.4,1
		c0.6,0,1.1,0.7,1.1,1.5c0,1.1-0.7,1.4-2.5,0.9c-1.5-0.4-2.5-0.2-2.5,0.5c0,0.6-0.7,1.1-1.6,1.1c-0.9,0-4.5,1.8-8,4
		s-6.801,4-7.301,4s-3.8,2.8-7.199,6.2c-16.801,16.2-16.7,16.1-22.101,15.6c-3.2-0.399-5.7-1.3-7.3-2.8c-2.3-2.2-2.5-2.2-3.1-0.4
		c-0.301,1-1,3-1.4,4.4c-0.5,1.4-1.8,5.9-3,10c-5,17.3-7.2,24.7-8.5,28.5c-0.8,2.2-2.4,8.1-3.5,13c-1.1,5-2.7,11.5-3.6,14.5
		c-5.801,20.2-7.2,26.6-9.5,42.5c-1.801,12.5-3.101,18.9-4.4,22.5c-0.7,1.9-1.6,6.4-2,10c-0.6,6-1.9,12.4-3.1,16
		c-0.5,1.2-0.801,1.2-1.9-0.4c-1.4-1.8-1.5-1.8-2.5,0.801c-0.5,1.5-0.8,3.199-0.5,3.6c0.3,0.5-0.3,1.3-1.2,1.9
		c-1.5,0.8-1.6,1.3-0.7,2.899c1,1.5,1.101,4.9,0.4,9.2c0,0.3-0.5-0.2-1-1c-0.8-1.2-1-1.2-1.1,0.5c0,1.6-0.301,1.4-1.4-1
		c-1.8-3.9-1.9-7.4-0.1-8.1c1.6-0.601,3.1-4.2,4-9.101c1-5.8-2.601-3.8-6.301,3.5c-1.199,2.3-2.5,4.2-3,4.2s-2.199,1.4-3.899,3.1
		c-3.101,3.2-4.3,6.5-5,14.2c-0.101,0.9-0.9,1.7-1.7,1.7s-1.5,0.5-1.5,1c0,0.6-0.9,1-2,1c-1.7,0-1.9-0.3-1.1-1.9
		c1.5-2.699-1.2-3.5-3.5-1c-1,1.101-3.7,2.5-6.101,3.101c-2.399,0.5-4.3,1.399-4.3,1.899c0,1.2,0.7,1.101,3.1-0.1
		c2.801-1.6,4.7-0.1,2.301,1.8c-1.801,1.4-1.801,1.4-0.101,0.8c3-1,3.8,0.301,1.7,2.4c-2,2-4.4,2-190.7,1.9
		C188.4,808.9,102.9,808.6,102.3,808.3z M317.3,799.3c-0.7-0.2-1.899-0.2-2.5,0c-0.7,0.3-0.2,0.5,1.2,0.5S317.9,799.6,317.3,799.3z
		 M488.2,790.3c1.899-2.8,2.7-5.5,3.1-10.6l0.5-6.8l-2.7,0.399c-2.8,0.4-5.199,1.2-8.8,3c-2.5,1.2-3.2,6.101-1,7.101
		c1,0.5,1,0.699,0,1.199c-1.7,0.801-1.6,4.601,0.2,7c1.3,1.7,1.4,1.4,1.5-4.3c0-3.399,0.3-6.8,0.6-7.7c0.9-2.5,2.5-0.8,1.801,2
		c-0.801,3,0.5,13.601,1.5,13C485.3,794.3,486.8,792.4,488.2,790.3z M296,791.6c0-1.399-0.4-2.699-0.9-3.1c-0.5-0.3-0.9,0.8-0.9,2.5
		C294.3,794.6,296,795.1,296,791.6z M297,785c0-0.5-0.4-1-1-1c-0.5,0-1,0.5-1,1c0,0.6,0.5,1,1,1C296.6,786,297,785.6,297,785z
		 M501.3,745.4c3.601-1.9,18.601-12.101,20.2-13.801c3.1-3.399,3.4-4.699,0.5-2c-7.3,6.4-13,9.801-16.7,9.9
		c-1.1,0-8.899,7.5-7.8,7.5C497.8,747,499.5,746.3,501.3,745.4z M508.7,744.3c-0.4-0.3-0.7,0-0.7,0.7s0.3,1,0.7,0.7
		C509,745.3,509,744.7,508.7,744.3z M507.7,737.3c-0.4-0.3-1-0.3-1.4,0c-0.3,0.4,0,0.7,0.7,0.7S508,737.7,507.7,737.3z M307,729.9
		c0-1.101-0.4-1.7-1-1.4c-0.5,0.3-1-0.1-1-0.9c0-0.899-0.4-1.6-1-1.6c-1.1,0-1.3,1.1-0.4,3.4c0.3,0.899,1.1,1.3,1.7,0.899
		c0.6-0.399,0.8,0,0.4,1.101c-0.4,1-0.3,1.5,0.3,1.1C306.6,732.2,307,731,307,729.9z M357,706.9c0-0.5-0.4-0.9-1-0.9
		c-0.5,0-1,0.7-1,1.6c0,0.801,0.5,1.2,1,0.9C356.6,708.2,357,707.5,357,706.9z M311.7,705.8c-0.3-0.8-0.601-0.5-0.601,0.601
		c-0.1,1.1,0.2,1.699,0.5,1.3C311.9,707.4,312,706.5,311.7,705.8z M356.7,701.8c-0.3-0.8-0.601-0.5-0.601,0.601
		c-0.1,1.1,0.2,1.699,0.5,1.3C356.9,703.4,357,702.5,356.7,701.8z M357.7,696.8c-0.3-0.8-0.601-0.5-0.601,0.601
		c-0.1,1.1,0.2,1.699,0.5,1.3C357.9,698.4,358,697.5,357.7,696.8z M359.2,692c0.3-1.7,0.1-3.3-0.4-3.6
		c-0.399-0.301-0.8,0.399-0.8,1.5c0,1-0.3,2.6-0.6,3.5c-0.301,0.899-0.2,1.6,0.399,1.6C358.3,695,359,693.6,359.2,692z M314.5,688
		c-0.3-0.5-1.2-1-1.8-1c-0.7,0-0.601,0.4,0.3,1C314.9,689.2,315.3,689.2,314.5,688z M359.7,684.3c-0.4-0.3-0.7,0-0.7,0.7
		s0.3,1,0.7,0.7C360,685.3,360,684.7,359.7,684.3z M311.6,680.5c1.301-1,1.5-1.7,0.801-2.2c-1.101-0.8-2.4-5.3-2.5-8.3
		c-0.101-3.6-0.801-4.2-3.101-2.6c-1.2,0.899-3,1.6-4,1.6s-1.8,0.7-1.8,1.5s-0.6,1.5-1.2,1.5c-0.7,0-0.1,0.8,1.5,1.8
		c1.7,1,2.8,2.601,2.9,4.2c0,1.4,0.4,0.5,0.8-2c0.7-4.4,0.7-4.5,0.8-0.8C306.1,682,307.7,683.5,311.6,680.5z M297.7,679.3
		c-0.4-0.3-1-0.3-1.4,0c-0.3,0.4,0,0.7,0.7,0.7S298,679.7,297.7,679.3z M384.1,677.7c-1-0.9-1.1-0.8-0.5,0.6
		c0.301,1,0.9,1.5,1.2,1.2S384.8,678.4,384.1,677.7z M298.7,668.4c-0.9-0.9-2.8,0.6-2.1,1.8c0.4,0.6,1,0.6,1.7-0.101
		C298.9,669.5,299.1,668.8,298.7,668.4z M364.7,662.3c-0.4-0.3-0.7,0-0.7,0.7s0.3,1,0.7,0.7C365,663.3,365,662.7,364.7,662.3z
		 M367.2,656.6c0.399,0.301,0.399-0.399,0.1-1.6c-0.5-2.1-0.7-2-1.899,1c-1.7,4-1.7,5.2-0.101,2.2C366,657,366.9,656.2,367.2,656.6z
		 M343.7,650.3c-0.3-1-0.5-0.399-0.5,1.2c0,1.7,0.2,2.4,0.5,1.8C343.9,652.6,343.9,651.2,343.7,650.3z M368.4,648.4
		c0.899-2.301,0.699-3.601-0.301-3c-1.199,0.8-2.1,4.6-1.1,4.6C367.4,650,368.1,649.3,368.4,648.4z M344.9,644.8
		c0-3.1-0.101-3.1-1-1c-0.5,1.3-0.7,2.8-0.301,3.3C344.6,648.7,345,648,344.9,644.8z M371.2,637.5c0.3-1.3,0.1-2.2-0.3-1.9
		c-0.9,0.5-1.301,4.4-0.5,4.4C370.6,640,371,638.9,371.2,637.5z M373.6,631.2c0-0.9,0.5-2.9,0.9-4.4c0.4-1.7,0.3-2.8-0.3-2.8
		c-0.8,0-2.2,5.3-2.2,8.9C372,634.8,373.3,633.4,373.6,631.2z M375.9,617.5v-2l-0.9,2c-0.5,1.1-0.9,2.7-0.9,3.5
		c-0.1,1.3,0,1.3,0.9,0C375.5,620.2,375.9,618.6,375.9,617.5z M376.7,613.3c-0.4-0.3-0.7,0-0.7,0.7s0.3,1,0.7,0.7
		C377,614.3,377,613.7,376.7,613.3z M380,609.1c0-0.6-0.4-1.3-1-1.6c-0.5-0.3-1,0.1-1,0.9c0,0.899,0.5,1.6,1,1.6
		C379.6,610,380,609.6,380,609.1z M91.7,604.3c-0.4-0.3-0.7,0-0.7,0.7s0.3,1,0.7,0.7C92,605.3,92,604.7,91.7,604.3z M400.7,602.8
		c-0.3-0.8-0.601-0.5-0.601,0.601c-0.1,1.1,0.2,1.699,0.5,1.3C400.9,604.4,401,603.5,400.7,602.8z M384,600.8c0-0.399-0.4-1-1-1.3
		c-0.5-0.3-1-1.6-1.1-2.8c-0.101-2-0.2-2-0.9,0.3c-0.4,1.4-0.8,3.5-0.9,4.8c-0.1,2,0.101,2.101,1.9,1
		C383.1,602.1,384,601.2,384,600.8z M272,600c0-0.5-0.4-1-1-1c-0.5,0-1,0.5-1,1c0,0.6,0.5,1,1,1C271.6,601,272,600.6,272,600z
		 M343.4,598.9c-0.801-1.4-2.101-1.101-2.101,0.5c0,0.8,0.601,1.199,1.4,0.899C343.4,600,343.7,599.4,343.4,598.9z M376.2,594.5
		c0.3-1.4,0.1-2.5-0.3-2.5c-0.5,0-0.9,1.1-0.9,2.5s0.2,2.5,0.4,2.5C375.6,597,376,595.9,376.2,594.5z M372,585c0-0.5-0.2-1-0.4-1
		c-0.3,0-0.8,0.5-1.1,1c-0.3,0.6-0.1,1,0.4,1C371.5,586,372,585.6,372,585z M404,582c0-0.5-0.6-1-1.4-1c-0.8,0-1.8,0.5-2.1,1
		c-0.3,0.6,0.3,1,1.4,1C403.1,583,404,582.6,404,582z M99,569.3c0-0.7,0.5-1.3,1-1.3c0.6,0,1-0.4,1-1c0-1.3-4.7-1.3-5.4-0.1
		c-0.4,0.5,0,1.199,0.6,1.399c0.8,0.4,0.7,0.601-0.4,0.7c-3.4,0.4-3.6,0.5-4.4,1.2c-0.4,0.5,1.1,0.7,3.4,0.6
		C97.6,570.7,99,570.2,99,569.3z M127,566.9c0-0.5,0.4-0.801,0.9-0.4c1.2,0.7,2.5-3.1,1.6-4.5c-0.4-0.6,0.9-2.7,2.9-4.6
		c2.9-2.801,3.6-4.301,3.6-7.2c0-2.101,0.5-4.3,1.2-5c0.9-0.9,0.9-1.2,0-1.2c-1.5,0-1.6-5.6-0.1-6.5c0.6-0.5,0.4-1.1-0.7-1.9
		c-1.6-1.199-1.6-1.3,0-1.899c1.1-0.5,1.6-1.7,1.6-3.9c-0.1-1.8,0.1-6.6,0.5-10.6c1.1-12.7-2.3-47.3-4.8-49.9
		c-0.2-0.1-1.2,0-2.4,0.3c-1.4,0.4-2,1.4-2,3.101c0,1.3-1,3.8-2.2,5.3c-2.8,3.8-4.4,11.7-3.6,17.7c0.3,2.6,0.8,7.1,1,9.8
		c0.2,2.8,0.9,9.3,1.5,14.5s0.8,13.1,0.5,17.5c-1.3,18.4-1.5,30.5-0.5,30.5C126.5,568,127,567.5,127,566.9z M101.5,563
		c-0.3-0.5-1-1-1.6-1c-0.5,0-0.9,0.5-0.9,1c0,0.6,0.7,1,1.6,1C101.4,564,101.8,563.6,101.5,563z M134,561.5c0-0.8-0.4-1.5-1-1.5
		c-0.5,0-1,0.7-1,1.5s0.5,1.5,1,1.5C133.6,563,134,562.3,134,561.5z M102.8,555.5c-0.2-0.3-2.4,0.1-4.9,0.9l-4.4,1.399l3.8,0.101
		c2.2,0.1,3.7,0.6,3.8,1.399c0,0.601,0.5,0.2,1.1-1.1C102.8,557,103.1,555.8,102.8,555.5z M104.5,550c0.3-0.5-0.1-1-1-1
		s-1.3,0.5-1,1c0.3,0.6,0.8,1,1,1S104.2,550.6,104.5,550z M103.5,523.5c2.6-0.9,3.2-1.4,1.9-1.5c-3.5,0-8.4,1.2-8.4,2.1
		C97,525.4,98.9,525.2,103.5,523.5z M80.4,519.7c0.7-0.601,0.6-0.7-0.4-0.4c-0.8,0.2-1.6,1.2-1.7,2.3c-0.2,1.301-0.1,1.5,0.4,0.4
		C79,521.2,79.8,520.1,80.4,519.7z M98.5,519c-0.3-0.5-1-1-1.6-1c-0.5,0-0.9,0.5-0.9,1c0,0.6,0.7,1,1.6,1
		C98.4,520,98.8,519.6,98.5,519z M250.7,513.4c-0.3-0.301-1.2-0.4-1.9-0.101c-0.8,0.3-0.5,0.601,0.6,0.601
		C250.5,514,251.1,513.7,250.7,513.4z M592.3,494.1c0.7-1.6,4.3-6.3,8.101-10.5c6.6-7.199,12-14.3,16-21.1
		c1.199-2.1,0.3-1.4-2.801,2c-2.6,2.8-5.3,6.1-6.1,7.6c-0.7,1.4-4.2,5.101-7.7,8.4c-7.1,6.7-9.8,10.4-9.8,14
		C590,497.8,590.8,497.7,592.3,494.1z M85.4,464.8c-1.7-6.6-2.3-8.2-2.9-7.6c-0.6,0.6,3,12.8,3.8,12.8
		C86.5,470,86.1,467.6,85.4,464.8z M468.5,465c-0.3-0.4,0.1-1,0.7-1.3c0.7-0.2,0.899-0.8,0.5-1.3c-0.4-0.5-1.2-0.2-1.7,0.6
		c-1.3,2-1.3,4.3,0,3.5C468.6,466.1,468.8,465.5,468.5,465z M620.4,457.4c0.3-0.801,0.199-1.2-0.4-0.9s-1,1-1,1.6
		C619,459.5,619.7,459.2,620.4,457.4z M80.2,444.1c-0.3-2-1.1-4-1.8-4.6c-0.8-0.5-2.7-3.5-4.5-6.5c-1.7-3-2.8-4.6-2.4-3.5
		s1.1,3.1,1.5,4.5c0.5,1.4,1.7,4.3,2.8,6.6c1.2,2.2,2.4,5.301,2.8,6.801C79.6,451.4,81,448.6,80.2,444.1z M467,431.6
		c0-0.3-0.4-0.8-1-1.1c-0.5-0.3-1-0.1-1,0.4c0,0.6,0.5,1.1,1,1.1C466.6,432,467,431.8,467,431.6z M158.8,419.8
		c-1.8-3.1-2.8-3.8-6.1-3.8c-4.1,0-3.2,3.2,1.3,4.7C159.5,422.6,160.2,422.4,158.8,419.8z M474.7,419.3c-0.4-0.3-1-0.3-1.4,0
		c-0.3,0.4,0,0.7,0.7,0.7S475,419.7,474.7,419.3z M418,386c0-2.5-0.4-3-2.2-2.9s-1.899,0.2-0.5,0.6c0.9,0.2,1.5,0.9,1.101,1.4
		c-0.601,1,0.199,3.9,1.1,3.9C417.8,389,418,387.7,418,386z M172.9,378.3c0.2-2.2-1.5-1.4-2.7,1.1c-0.8,1.7-0.7,2.7,0.1,3.5
		c0.9,0.9,1.4,0.7,1.9-1.1C172.5,380.5,172.8,378.9,172.9,378.3z M159.7,379.3c-0.4-0.3-1-0.3-1.4,0c-0.3,0.4,0,0.7,0.7,0.7
		S160,379.7,159.7,379.3z M328.7,335.9c-0.101-2.9,0.399-4.5,1.6-5.4c2-1.5,2.2-2.5,0.4-2.5c-2.601,0-4.5,6.7-3.101,10.4
		C328.6,341,328.9,340.3,328.7,335.9z M388.6,334.3c1.801-2.5,1.801-6.3-0.1-6.3c-0.8,0-1.5,0.5-1.5,1c0,0.6-0.7,1-1.6,1
		c-1.101,0-1.4,0.5-1,1.6c0.3,0.9,0.6,2.2,0.6,3C385,336.5,387,336.4,388.6,334.3z M333.7,330.8c-0.3-0.8-0.601-0.5-0.601,0.6
		c-0.1,1.1,0.2,1.7,0.5,1.3C333.9,332.4,334,331.5,333.7,330.8z M336,322.4c0-1.6-3.8-2.5-4.7-1.1c-0.3,0.6-0.1,1.3,0.5,1.5
		c0.7,0.2,1.2,1.6,1.2,3l0.1,2.7l1.4-2.5C335.3,324.6,335.9,323,336,322.4z M448.5,304.9c4-1.1,7.5-3.5,7.5-5.1
		c0-1.8-5.2-0.7-7.6,1.7c-1.5,1.5-3.601,2.5-5.4,2.5c-1.7,0-3,0.5-3,1C440,306.3,443.5,306.3,448.5,304.9z M462,292.9
		c0-1.3-0.6-1.1-2.4,0.7c-0.899,0.8-1.6,2.3-1.6,3.2c0.1,1.4,0.5,1.2,2-0.7C461.1,294.8,462,293.4,462,292.9z M168,281
		c0-0.5-0.5-1-1.1-1c-0.5,0-0.7,0.5-0.4,1c0.3,0.6,0.8,1,1.1,1C167.8,282,168,281.6,168,281z M103.5,198.6c0.3-4-0.8-4.7-2.5-1.6
		c-0.8,1.4-0.8,2.6,0,4.1C102.5,203.7,103,203.1,103.5,198.6z M108.7,195.3c-0.3-1-0.5-0.2-0.5,1.7s0.2,2.7,0.5,1.8
		C108.9,197.8,108.9,196.2,108.7,195.3z"/>
	<path d="M308,677c0-0.7,0.3-1,0.7-0.7c0.3,0.4,0.3,1,0,1.4C308.3,678,308,677.7,308,677z"/>
	<path d="M101,199c0-0.7,0.3-1,0.7-0.7c0.3,0.4,0.3,1,0,1.4C101.3,200,101,199.7,101,199z"/>
	<path d="M654.9,799.8c-1.9-1.6-3.101-5.899-2-7.6c0.699-1.2,7-0.5,11.399,1.3c3,1.2,2-2.2-1.8-6.2
		c-3.5-3.7-4.5-6.3-2.4-6.3c0.601,0,0.9-0.7,0.601-1.4c-0.7-1.6,4.899-5.6,7.7-5.6c0.899,0,2.399-0.4,3.399-0.9
		c0.9-0.6,2.9-1.199,4.5-1.6c1.5-0.3,2.7-1,2.7-1.6c0-1.9-3.4-6.101-5.6-6.9c-1.2-0.5-9.9-1-19.4-1.1c-16-0.2-17.2-0.4-18.6-2.301
		c-2-2.899-1.7-4.399,0.899-4.8c1.601-0.2,2.2-1,2.2-2.8c0-1.6,1.1-3.1,3.5-4.8c2.7-1.8,4-3.8,5.8-9c2.4-6.7,8.5-14.2,11.5-14.2
		c0.8,0,2-0.7,2.8-1.6c1.5-1.9,12.2-7.4,14.301-7.4c0.899,0,3.1-0.9,5.1-2l3.5-2v41.1V793.2l-2.5-0.601
		c-1.4-0.399-2.5-0.199-2.5,0.301s-1.8,1.199-4,1.6c-3,0.5-4,1.1-4,2.5c0,2.5-0.5,2.7-8.5,3.4C658.5,800.9,656,800.7,654.9,799.8z"
		/>
	<path d="M516.5,779c0.3-0.5,0.8-1,1.1-1c0.2,0,0.4,0.5,0.4,1c0,0.6-0.5,1-1.1,1C516.4,780,516.2,779.6,516.5,779z"
		/>
	<path d="M53,759c0-0.5,0.5-1,1-1c0.6,0,1,0.5,1,1c0,0.6-0.4,1-1,1C53.5,760,53,759.6,53,759z"/>
	<path d="M54.2,754.2c-1.4-3-1.5-10-0.3-15.5c0.5-2.101,0.5-3.9,0-4.3c-1.2-0.7-1.1-5.101,0.1-5.9
		c0.6-0.3,1-1.5,1-2.5c0-2.3,3.9-10,5-10c0.4,0,1,1.1,1.2,2.5c0.3,1.4,0.1,2.5-0.3,2.5c-0.5,0-0.9,0.7-0.9,1.5s0.5,1.5,1,1.5
		c1.8,0,1,1.8-1,2.3c-1.2,0.3-2,1.4-2,2.5c0,1.2-0.4,2.4-1,2.7c-1.5,0.9-1.2,4.5,0.4,4.5c0.8,0,1.8-0.9,2.1-2
		c0.9-2.7,2.5-2.5,2.5,0.3c0,3.601-2.4,9.4-3.8,9.101c-0.7-0.101-0.8,0-0.2,0.3c1.4,0.6,1.3,5.3-0.1,5.3c-0.6,0-0.9,0.6-0.7,1.3
		c0.3,0.601,0,2.4-0.6,3.9l-1.1,2.6L54.2,754.2z"/>
	<path d="M388.3,664.3c0.4-0.3,1-0.3,1.4,0c0.3,0.4,0,0.7-0.7,0.7S388,664.7,388.3,664.3z"/>
	<path d="M291.4,660.9c-0.3-0.601-0.1-1.601,0.5-2.2c0.8-0.8,1.1-0.5,1.1,1.1C293,662.2,292.5,662.6,291.4,660.9z"/>
	<path d="M275.5,657c-0.3-0.5,0.1-1,1-1s1.3,0.5,1,1c-0.3,0.6-0.8,1-1,1S275.8,657.6,275.5,657z"/>
	<path d="M337,589.3c0.1-1.8,1.9-3.5,2.9-2.8c0.899,0.5,0.899,1,0,2.1C338.7,590.1,337,590.5,337,589.3z"/>
	<path d="M279.1,587.4c0-1.101,0.3-1.4,0.6-0.601c0.3,0.7,0.2,1.601-0.1,1.9C279.3,589.1,279,588.5,279.1,587.4z"/>
	<path d="M275.6,580.5c-2.2-3.4-2-4.3,0.4-1.5c1.8,2.1,2.6,4,1.6,4C277.4,583,276.5,581.9,275.6,580.5z"/>
	<path d="M347.5,582c0.3-0.5,1.3-1,2.1-1c0.801,0,1.2,0.5,0.9,1c-0.3,0.6-1.3,1-2.1,1
		C347.6,583,347.2,582.6,347.5,582z"/>
	<path fill="#D46C6E" d="M91,581c0-0.5,0.5-1,1-1c0.6,0,1,0.5,1,1c0,0.6-0.4,1-1,1C91.5,582,91,581.6,91,581z"/>
	<path d="M403.8,576.3c0.7-0.3,1.601-0.2,1.9,0.101c0.399,0.3-0.2,0.6-1.3,0.5C403.3,576.9,403,576.6,403.8,576.3z"
		/>
	<path d="M392.3,574.3c0.4-0.3,1-0.3,1.4,0c0.3,0.4,0,0.7-0.7,0.7S392,574.7,392.3,574.3z"/>
	<path d="M360.2,571.8c0.5-1.5,2.8-1.8,2.899-0.3c0,0.6-0.699,1.2-1.699,1.3C360.4,573.1,359.9,572.7,360.2,571.8z"
		/>
	<path d="M384.5,571.1c-0.3-0.6,0.4-2.1,1.5-3.3l2.2-2.3l-0.4,2.9C387.5,571.4,385.7,572.9,384.5,571.1z"/>
	<path d="M353.3,570.3c0.4-0.3,1-0.3,1.4,0c0.3,0.4,0,0.7-0.7,0.7S353,570.7,353.3,570.3z"/>
	<path d="M392.3,570.3c0.4-0.3,1-0.3,1.4,0c0.3,0.4,0,0.7-0.7,0.7S392,570.7,392.3,570.3z"/>
	<path d="M361.3,568.3c0.4-0.3,1-0.3,1.4,0c0.3,0.4,0,0.7-0.7,0.7S361,568.7,361.3,568.3z"/>
	<path d="M367.6,568.1c-0.399-0.6-1.199-0.899-1.699-0.6c-0.5,0.4-0.9-1-0.9-3c0-2.1-0.4-3.4-1-3
		c-1.1,0.7-0.4-4.5,1.2-8.7c0.6-1.5,3.5-4.899,6.6-7.5c3.101-2.7,7.2-6.3,9.2-8c5.4-5,5.9-3.899,0.6,1.4
		c-2.5,2.7-4.199,4.899-3.6,5.1c2.6,0.9,0.5,11.4-2.8,13.5c-0.7,0.5-1,1.2-0.7,1.601c0.2,0.5-0.2,1.399-1,2.1s-1.5,1.8-1.5,2.5
		C372,565.7,368.4,569.5,367.6,568.1z"/>
	<path d="M388,530.5c0.7-0.9,1.5-1.3,1.7-1.1c0.7,0.699-0.7,2.6-1.9,2.6C387.2,532,387.2,531.4,388,530.5z"/>
	<path d="M240,521c0-0.7,0.3-1,0.7-0.7c0.3,0.4,0.3,1,0,1.4C240.3,522,240,521.7,240,521z"/>
	<path d="M237.3,516.3c0.4-0.3,1-0.3,1.4,0c0.3,0.4,0,0.7-0.7,0.7S237,516.7,237.3,516.3z"/>
	<path d="M401,417.6c0-0.899,0.7-1.199,2-0.899c1.1,0.3,1.7,0.899,1.4,1.399C403.6,419.5,401,419.1,401,417.6z"/>
	<path d="M228,409c0-0.5,0.5-1,1-1c0.6,0,1,0.5,1,1c0,0.6-0.4,1-1,1C228.5,410,228,409.6,228,409z"/>
	<path d="M170.3,270c-4.9-1-11.9-4-14.8-6.4c-1.7-1.4-1.8-1.7-0.5-2.7c1.1-0.8,1.2-1.2,0.2-1.6
		c-1.9-0.7-0.4-2.3,1.6-1.6c0.9,0.3,1.4,0.3,1-0.2c-0.4-0.4,1.3-2.8,3.7-5.4c2.5-2.5,5.2-6.1,6-7.8c2-4.1,4.6-5.6,7.7-4.4
		c2.4,0.9,3.2,1.1,4.6,1.1c0.4,0,2.5,1.6,4.7,3.6c2.2,1.9,5.8,4.3,8.1,5.3c5.2,2.4,7.7,6.2,6.9,10.4c-1.2,5.9-1.6,6.7-4.5,8.2
		C191.4,270.3,176.1,271.3,170.3,270z"/>
	<path d="M152,260c0-0.7,0.3-1,0.7-0.7c0.3,0.4,0.3,1,0,1.4C152.3,261,152,260.7,152,260z"/>
	<path d="M427,246c0-0.5,0.4-1,0.9-1c0.6,0,1.3,0.5,1.6,1c0.3,0.6-0.1,1-0.9,1C427.7,247,427,246.6,427,246z"/>
	<path d="M191,240.1c-4.3-0.8-5.1-3.9-2-7.9c2.3-2.9,3.8-3.4,5.7-1.9c0.7,0.5,1.7,0.6,2.2,0.2c1.5-0.9,2.4,4,1.4,7.2
		C197.3,240.8,196.3,241.1,191,240.1z"/>
	<path d="M150.7,239.3c-1.3-1.2-0.7-3.3,0.8-3.3c0.8,0,1.5,0.9,1.5,2C153,240,151.9,240.6,150.7,239.3z"/>
	<path d="M158,239.1c0-0.5-0.3-1.6-0.6-2.5c-0.4-1.1-0.1-1.6,1-1.6c1.8,0,2.2,3.5,0.6,4.5
		C158.5,239.8,158,239.7,158,239.1z"/>
	<path d="M475.8,223.3c-1.6-0.8-2.8-2.1-2.8-2.9c0-1,0.5-1.2,1.3-0.7c0.601,0.4,1.8,0.8,2.601,0.8
		c0.699,0,1.699,1,2.199,2.3C480,225.3,479.6,225.4,475.8,223.3z"/>
	<path d="M470,218.5c0-0.8,0.5-1.5,1-1.5c0.6,0,1,0.7,1,1.5s-0.4,1.5-1,1.5C470.5,220,470,219.3,470,218.5z"/>
	<path d="M146.4,215.5c-1.4-1.6-1.8-2.7-1.1-3.4c0.5-0.5,1.1-3.8,1.4-7.2c0.5-6.9,1.2-7.9,5.9-7.9
		c4.2,0,5.2,2.5,1.5,3.8c-3.1,1.1-4.3,4.4-4.1,11.9C150.1,217.8,149.1,218.6,146.4,215.5z M155,199c0-0.5-0.4-1-1-1
		c-0.5,0-1,0.5-1,1c0,0.6,0.5,1,1,1C154.6,200,155,199.6,155,199z"/>
	<path d="M144.3,215.3c0.4-0.3,1-0.3,1.4,0c0.3,0.4,0,0.7-0.7,0.7S144,215.7,144.3,215.3z"/>
	<path d="M469,215c0-0.7,0.3-1,0.7-0.7c0.3,0.4,0.3,1,0,1.4C469.3,216,469,215.7,469,215z"/>
	<path d="M151,213c0-0.7,0.3-1,0.7-0.7c0.3,0.4,0.3,1,0,1.4C151.3,214,151,213.7,151,213z"/>
	<path d="M153.5,204c-0.3-0.5-0.1-1,0.4-1c0.6,0,1.1,0.5,1.1,1c0,0.6-0.2,1-0.4,1C154.3,205,153.8,204.6,153.5,204z"
		/>
	<path d="M307.2,197.7c-1.8-1.2-3.2-2.7-3.2-3.3c0-0.7-1.2-1.9-2.6-2.9c-3-1.9-4.9-6.1-5.9-12.9
		c-0.4-2.7-1.3-5.9-2.1-7.1c-0.8-1.2-1.6-4.1-1.8-6.3c-0.2-2.3-0.8-4.7-1.4-5.4c-0.9-1.2-1.8-5.6-4.3-21.3
		c-0.6-3.3-0.7-7.8-0.4-10.1c0.5-3.2,0.2-4.4-1.5-5.9c-1.1-1-2-2.4-2-3.2c0-0.7-0.4-1.3-1-1.3c-0.5,0-1-0.8-1-1.8s-0.5-2.3-1.1-2.9
		c-0.6-0.6-1.3-4.6-1.6-8.9c-0.4-5.9-1.1-8.4-2.4-9.7c-1-1-2.2-2.9-2.5-4.2c-0.3-1.4-1.2-2.5-2-2.5c-0.8,0-4-1.8-7.1-4
		c-5.5-3.8-6.2-4-13.5-4c-5.1,0-7.8-0.4-8-1.2c-0.4-1.2-11.3-2.4-30.3-3.3c-7.3-0.3-13.2-0.9-14.5-1.4c-0.3-0.2,0.4-0.6,1.5-1.1
		c1.5-0.7,1-0.9-2.2-0.9c-2.9-0.1-4.3-0.5-4.3-1.5c0-0.9-1.8-1.6-5.2-2c-2.9-0.4-5.5-1.1-5.8-1.6c-0.3-0.4-4.3-1.1-9-1.5
		c-4.7-0.3-12.1-1.1-16.5-1.7c-4.4-0.5-9-1-10.2-0.9c-0.667,0-1.425-0.28-2.218-0.802c-4.078,2.28-8.436,4.181-12.299,6.794
		c-0.96,2.313-1.912,4.631-2.884,6.941c0.384,2.375-0.543,7.036-2.798,13.867c-1.6,4.9-3.4,11.7-4.1,15.3c-0.6,3.6-1.8,7.9-2.5,9.5
		c-0.7,1.7-2.3,5.9-3.6,9.5c-2.4,7.1-5.4,12.9-7.4,14.5c-1.2,0.9-3.6,9.4-6,21.2c-0.3,1.8-1.8,5.6-3.1,8.4c-1.5,3.1-2.2,5.4-1.6,5.8
		c0.6,0.3,1.2,2.2,1.4,4c0.4,3.4,3,6.2,4.5,4.8c0.4-0.5,0.3-1.1-0.2-1.5c-1.7-1.2-1.6-5.2,0-5.9c1-0.3,1.3-1.2,1-2.3
		c-0.4-1.3,0.1-2,1.5-2.5c5.4-1.7,10.9,2.3,14.6,10.6c1.5,3.3,3.7,6.5,4.8,7.1c1.2,0.6,3.8,2.5,5.9,4.2c3,2.4,4,2.7,4.7,1.7
		c0.4-0.8,1.7-1.2,2.9-0.8c3.3,0.8,4.5-1.8,4.4-9.3l-0.2-6.9l5.7-3.3l5.7-3.2h25.8l25.8,0.1l5.4,2.8c2.9,1.6,5.9,3.9,6.6,5.3
		c0.7,1.3,2.6,3.3,4.1,4.4c1.5,1,2.8,2.6,2.8,3.3c0,0.8,1.2,1.8,2.8,2.2c4.5,1.1,10.9,4.2,16.9,8.2c3.2,2.1,6.6,4,7.6,4.4
		c0.9,0.3,1.7,1.1,1.7,1.7c0,0.8,0.6,0.8,1.9,0c1.2-0.6,5.8-0.8,10.8-0.6c8.6,0.4,34.5-0.8,41.2-2l3.399-0.5L307.2,197.7z
		 M99.7,171.7c-0.4,0.3-0.7,0-0.7-0.7s0.3-1,0.7-0.7C100,170.7,100,171.3,99.7,171.7z"/>
	<path d="M135,198.5c0-0.8,0.9-1.5,2.1-1.5c1.1,0,2.9-0.5,4.1-1.1c2.9-1.6,3.4-0.2,0.7,2
		C139,200.3,135,200.6,135,198.5z"/>
	<path d="M174,194.9c-2.5-0.5-7-1.3-10-1.8c-5.5-0.8-5.3-1.3,0.5-1.3c3.1,0,17.5,2.9,18.4,3.7
		C183.5,196.2,179.2,195.9,174,194.9z"/>
	<path d="M148,193c0-0.6,0.7-1,1.5-1s1.5,0.2,1.5,0.4c0,0.2-0.7,0.6-1.5,1C148.7,193.7,148,193.5,148,193z"/>
	<path d="M155.8,192.3c0.7-0.3,1.6-0.2,1.9,0.1c0.4,0.3-0.2,0.6-1.3,0.5C155.3,192.9,155,192.6,155.8,192.3z"/>
</g>
</svg>
